# WaveFront *.obj file (generated by Cinema 4D)

mtllib ./乂.mtl

v 273.0899658203125 0 -23.32473564147949
v 276.09597778320312 0 -24.91124534606934
v 286.61703491210938 0 -11.55116939544678
v 273.75796508789062 0 -15.39219093322754
v 291.14276123046875 0 -5.53913497924805
v 279.03518676757812 0 -1.33071112632751
v 297.12139892578125 0 1.17430317401886
v 286.45004272460938 0 11.76216316223145
v 302.5322265625 0 5.51632785797119
v 291.61038208007812 0 19.47760772705078
v 318.130126953125 0 15.16898250579834
v 303.567626953125 0 30.9672737121582
v 311.21627807617188 0 -9.71415901184082
v 330.28778076171875 0 -1.59791266918182
v 313.85488891601562 0 -17.16240119934082
v 334.36260986328125 0 -11.25056743621826
v 334.16220092773438 0 -21.83842849731445
v 336.16622924804688 0 -16.89520072937012
v 324.37594604492188 0 -26.1136531829834
v 330.32119750976562 0 -24.54384422302246
v 311.71728515625 0 -26.28065299987793
v 316.29312133789062 0 -26.7148551940918
v 310.74868774414062 0 -21.50442695617676
v 309.84686279296875 0 -24.91124534606934
v 321.6705322265625 0 18.90980339050293
v 314.7567138671875 0 39.21712112426758
v 330.02059936523438 0 23.75283241271973
v 322.60574340820312 0 44.71145248413086
v 347.69192504882812 0 27.35526657104492
v 340.77810668945312 18.18910980224609 47.66258239746094
v 363.59042358398438 0 30.39468383789062
v 364.38937377929688 0 32.62058258056641
v 348.42410278320312 0 53.12829971313477
v 342.24505615234375 0 53.59590148925781
v 331.42340087890625 0 49.72148132324219
v 289.06802368164062 0 40.68935394287109
v 277.28890991210938 0 30.75979042053223
v 272.81246948242188 0 48.60990524291992
v 263.888427734375 0 39.1868896484375
v 259.27386474609375 0 52.84648132324219
v 252.65229797363281 0 46.3245964050293
v 251.53750610351562 0 54.04377365112305
v 247.89958190917969 0 48.60990524291992
v 244.86030578613281 0 53.12277984619141
v 244.67610168457031 0 49.99139785766602
v 273.0899658203125 5.85242366790771 -23.32473564147949
v 276.09597778320312 5.85242366790771 -24.91124534606934
v 286.61703491210938 5.85242366790771 -11.55116939544678
v 273.75796508789062 5.85242366790771 -15.39219093322754
v 291.14276123046875 5.85242366790771 -5.53913497924805
v 279.03518676757812 5.85242366790771 -1.33071112632751
v 297.12139892578125 5.85242366790771 1.17430317401886
v 286.45004272460938 5.85242366790771 11.76216316223145
v 302.5322265625 5.85242366790771 5.51632785797119
v 291.61038208007812 5.85242366790771 19.47760772705078
v 318.130126953125 5.85242366790771 15.16898250579834
v 303.567626953125 5.85242366790771 30.9672737121582
v 311.21627807617188 5.85242366790771 -9.71415901184082
v 330.28778076171875 5.85242366790771 -1.59791266918182
v 313.85488891601562 5.85242366790771 -17.16240119934082
v 334.36260986328125 5.85242366790771 -11.25056743621826
v 334.16220092773438 5.85242366790771 -21.83842849731445
v 336.16622924804688 5.85242366790771 -16.89520072937012
v 324.37594604492188 5.85242366790771 -26.1136531829834
v 330.32119750976562 5.85242366790771 -24.54384422302246
v 311.71728515625 5.85242366790771 -26.28065299987793
v 316.29312133789062 5.85242366790771 -26.7148551940918
v 310.74868774414062 5.85242366790771 -21.50442695617676
v 309.84686279296875 5.85242366790771 -24.91124534606934
v 321.6705322265625 5.85242366790771 18.90980339050293
v 314.7567138671875 5.85242366790771 39.21712112426758
v 330.02059936523438 5.85242366790771 23.75283241271973
v 322.60574340820312 5.85242366790771 44.71145248413086
v 347.69192504882812 5.85242366790771 27.35526657104492
v 363.59042358398438 5.85242366790771 30.39468383789062
v 364.38937377929688 5.85242366790771 32.62058258056641
v 348.42410278320312 5.85242366790771 53.12829971313477
v 342.24505615234375 5.85242366790771 53.59590148925781
v 331.42340087890625 5.85242366790771 49.72148132324219
v 289.06802368164062 5.85242366790771 40.68935394287109
v 277.28890991210938 5.85242366790771 30.75979042053223
v 272.81246948242188 5.85242366790771 48.60990524291992
v 263.888427734375 5.85242366790771 39.1868896484375
v 259.27386474609375 5.85242366790771 52.84648132324219
v 252.65229797363281 5.85242366790771 46.3245964050293
v 251.53750610351562 5.85242366790771 54.04377365112305
v 247.89958190917969 5.85242366790771 48.60990524291992
v 244.86030578613281 5.85242366790771 53.12277984619141
v 244.67610168457031 5.85242366790771 49.99139785766602
v 273.0899658203125 13.09009647369385 -23.32473564147949
v 276.09597778320312 13.09009647369385 -24.91124534606934
v 286.61703491210938 13.09009647369385 -11.55116939544678
v 273.75796508789062 13.09009647369385 -15.39219093322754
v 291.14276123046875 13.09009647369385 -5.53913497924805
v 279.03518676757812 13.09009647369385 -1.33071112632751
v 297.12139892578125 13.09009647369385 1.17430317401886
v 286.45004272460938 13.09009647369385 11.76216316223145
v 302.5322265625 13.09009647369385 5.51632785797119
v 291.61038208007812 13.09009647369385 19.47760772705078
v 318.130126953125 13.09009647369385 15.16898250579834
v 303.567626953125 13.09009647369385 30.9672737121582
v 311.21627807617188 13.09009647369385 -9.71415901184082
v 330.28778076171875 13.09009647369385 -1.59791266918182
v 313.85488891601562 13.09009647369385 -17.16240119934082
v 334.36260986328125 13.09009647369385 -11.25056743621826
v 334.16220092773438 13.09009647369385 -21.83842849731445
v 336.16622924804688 13.09009647369385 -16.89520072937012
v 324.37594604492188 13.09009647369385 -26.1136531829834
v 330.32119750976562 13.09009647369385 -24.54384422302246
v 311.71728515625 13.09009647369385 -26.28065299987793
v 316.29312133789062 13.09009647369385 -26.7148551940918
v 310.74868774414062 13.09009647369385 -21.50442695617676
v 309.84686279296875 13.09009647369385 -24.91124534606934
v 321.6705322265625 13.09009647369385 18.90980339050293
v 314.7567138671875 13.09009647369385 39.21712112426758
v 330.02059936523438 13.09009647369385 23.75283241271973
v 322.60574340820312 13.09009647369385 44.71145248413086
v 347.69192504882812 13.09009647369385 27.35526657104492
v 363.59042358398438 13.09009647369385 30.39468383789062
v 364.38937377929688 13.09009647369385 32.62058258056641
v 348.42410278320312 13.09009647369385 53.12829971313477
v 342.24505615234375 13.09009647369385 53.59590148925781
v 331.42340087890625 13.09009647369385 49.72148132324219
v 289.06802368164062 13.09009647369385 40.68935394287109
v 277.28890991210938 13.09009647369385 30.75979042053223
v 272.81246948242188 13.09009647369385 48.60990524291992
v 263.888427734375 13.09009647369385 39.1868896484375
v 259.27386474609375 13.09009647369385 52.84648132324219
v 252.65229797363281 13.09009647369385 46.3245964050293
v 251.53750610351562 13.09009647369385 54.04377365112305
v 247.89958190917969 13.09009647369385 48.60990524291992
v 244.86030578613281 13.09009647369385 53.12277984619141
v 244.67610168457031 13.09009647369385 49.99139785766602
v 273.0899658203125 18.18910980224609 -23.32473564147949
v 276.09597778320312 18.18910980224609 -24.91124534606934
v 286.61703491210938 18.18910980224609 -11.55116939544678
v 273.75796508789062 18.18910980224609 -15.39219093322754
v 291.14276123046875 18.18910980224609 -5.53913497924805
v 279.03518676757812 18.18910980224609 -1.33071112632751
v 297.12139892578125 18.18910980224609 1.17430317401886
v 286.45004272460938 18.18910980224609 11.76216316223145
v 302.5322265625 18.18910980224609 5.51632785797119
v 291.61038208007812 18.18910980224609 19.47760772705078
v 318.130126953125 18.18910980224609 15.16898250579834
v 303.567626953125 18.18910980224609 30.9672737121582
v 311.21627807617188 18.18910980224609 -9.71415901184082
v 330.28778076171875 18.18910980224609 -1.59791266918182
v 313.85488891601562 18.18910980224609 -17.16240119934082
v 334.36260986328125 18.18910980224609 -11.25056743621826
v 334.16220092773438 18.18910980224609 -21.83842849731445
v 336.16622924804688 18.18910980224609 -16.89520072937012
v 324.37594604492188 18.18910980224609 -26.1136531829834
v 330.32119750976562 18.18910980224609 -24.54384422302246
v 311.71728515625 18.18910980224609 -26.28065299987793
v 316.29312133789062 18.18910980224609 -26.7148551940918
v 310.74868774414062 18.18910980224609 -21.50442695617676
v 309.84686279296875 18.18910980224609 -24.91124534606934
v 321.6705322265625 18.18910980224609 18.90980339050293
v 314.7567138671875 18.18910980224609 39.21712112426758
v 330.02059936523438 18.18910980224609 23.75283241271973
v 322.60574340820312 18.18910980224609 44.71145248413086
v 347.69192504882812 18.18910980224609 27.35526657104492
v 363.59042358398438 18.18910980224609 30.39468383789062
v 364.38937377929688 18.18910980224609 32.62058258056641
v 348.42410278320312 18.18910980224609 53.12829971313477
v 342.24505615234375 18.18910980224609 53.59590148925781
v 331.42340087890625 18.18910980224609 49.72148132324219
v 289.06802368164062 18.18910980224609 40.68935394287109
v 277.28890991210938 18.18910980224609 30.75979042053223
v 272.81246948242188 18.18910980224609 48.60990524291992
v 263.888427734375 18.18910980224609 39.1868896484375
v 259.27386474609375 18.18910980224609 52.84648132324219
v 252.65229797363281 18.18910980224609 46.3245964050293
v 251.53750610351562 18.18910980224609 54.04377365112305
v 247.89958190917969 18.18910980224609 48.60990524291992
v 244.86030578613281 18.18910980224609 53.12277984619141
v 244.67610168457031 18.18910980224609 49.99139785766602
v 340.77810668945312 0 47.66258239746094
# 178 vertices

vn 0 1 0
vn -0.46675941348076 0 -0.88438433408737
vn -0.46675944328308 0 -0.88438433408737
vn 0.78563636541367 0 -0.61868852376938
vn 0.79233193397522 0 -0.61009019613266
vn 0.79233199357986 0 -0.61009019613266
vn -0.97556436061859 0 0.21971382200718
vn -0.97556436061859 0 0.21971379220486
vn -0.99647307395935 0 0.0839129537344
vn -0.99647307395935 0 0.08391296118498
vn -0.90595710277557 0 0.42336949706078
vn 0.77351832389832 0 -0.63377398252487
vn 0.77351832389832 0 -0.63377392292023
vn -0.85126948356628 0 0.52472877502441
vn -0.85126948356628 0 0.52472871541977
vn 0.68873047828674 0 -0.72501748800278
vn 0.6887304186821 0 -0.72501754760742
vn -0.83121848106384 0 0.5559458732605
vn 0.62586879730225 0 -0.77992832660675
vn 0.62586879730225 0 -0.7799283862114
vn 0.87107384204864 0 0.49115204811096
vn 0.80957245826721 0 0.58701992034912
vn -0.86871165037155 0 -0.49531814455986
vn -0.86871165037155 0 -0.49531817436218
vn -0.90924370288849 0 -0.41626420617104
vn -0.90924370288849 0 -0.41626414656639
vn 0.93786776065826 0 0.34699282050133
vn 0.93786776065826 0 0.34699285030365
vn -0.94259965419769 0 -0.33392491936684
vn -0.94259965419769 0 -0.33392494916916
vn 0.78310185670853 0 -0.62189340591431
vn 0.99928027391434 0 -0.03793369978666
vn 0.16543388366699 0 -0.98622089624405
vn 0.42222312092781 0 -0.90649193525314
vn -0.35535052418709 0 -0.93473309278488
vn -0.35535058379173 0 -0.93473309278488
vn -0.01018157415092 0 -0.99994814395905
vn -0.01018157135695 0 -0.99994814395905
vn -0.90480476617813 0 0.42582660913467
vn -0.90480476617813 0 0.42582657933235
vn -0.96670383214951 0 0.25589787960052
vn -0.59073638916016 0 -0.80686461925507
vn -0.5907364487648 0 -0.80686461925507
vn -0.81331205368042 0 0.58182775974274
vn -0.81331205368042 0 0.58182770013809
vn -0.58349776268005 0 0.81211471557617
vn -0.58349776268005 0 0.81211471557617
vn -0.59344410896301 0 0.8048751950264
vn 0.72629475593567 0 -0.68738335371017
vn 0.62039756774902 0 -0.7842875123024
vn -0.53432655334473 0 0.84527814388275
vn -0.53432655334473 0 0.84527814388275
vn 0.35540050268173 0 -0.93471413850784
vn 0.35540047287941 0 -0.93471413850784
vn 0.19376611709595 0 -0.98104774951935
vn 0.94120681285858 0 -0.33783090114594
vn 0.18777573108673 0 -0.9822119474411
vn 0.07545963674784 0 0.99714887142181
vn -0.13373531401157 0 0.99101710319519
vn 0.78907573223114 0 0.61429595947266
vn 0.7890756726265 0 0.61429595947266
vn -0.41709831357002 0 0.9088613986969
vn -0.4170982837677 0 0.9088613986969
vn -0.57639467716217 0 -0.81717145442963
vn -0.57639479637146 0 -0.81717139482498
vn -0.61882483959198 0 -0.78552901744843
vn 0.55690634250641 0 0.83057528734207
vn 0.49863803386688 0 0.86681032180786
vn 0.49863803386688 0 0.86681032180786
vn -0.53427827358246 0 -0.84530866146088
vn -0.53427827358246 0 -0.84530866146088
vn 0.36937364935875 0 0.92928093671799
vn -0.48561719059944 0 -0.87417155504227
vn 0.22642724215984 0 0.97402805089951
vn 0.22642727196217 0 0.97402805089951
vn -0.41373088955879 0 -0.91039925813675
vn -0.41373088955879 0 -0.9103991985321
vn 0.00823858194053 0 0.99996608495712
vn -0.99827426671982 0 0.05872366577387
vn -0.99827426671982 0 0.05872366204858
vn -0.39391958713531 0 -0.91914492845535
vn -0.13663750886917 0 0.9906210899353
vn -0.46675938367844 0 -0.88438433408737
vn -0.90595710277557 0 0.42336946725845
vn 0.6887304186821 0 -0.72501748800278
vn 0.62586879730225 0 -0.7799283862114
vn 0.93786776065826 0 0.34699288010597
vn -0.94259965419769 0 -0.33392491936684
vn -0.35535055398941 0 -0.93473309278488
vn -0.01018156949431 0 -0.99994814395905
vn -0.59344410896301 0 0.8048751950264
vn 0.72629481554031 0 -0.68738335371017
vn 0.62039756774902 0 -0.78428745269775
vn 0.18777571618557 0 -0.9822119474411
vn 0.07545962929726 0 0.99714887142181
vn -0.61882477998734 0 -0.78552901744843
vn 0.55690628290176 0 0.83057534694672
vn 0.49863797426224 0 0.86681032180786
vn 0.00823858566582 0 0.99996608495712
vn -0.39391952753067 0 -0.91914492845535
vn -0.13663749396801 0 0.9906210899353
vn -0.97556436061859 0 0.21971380710602
vn 0.68873047828674 0 -0.72501742839813
vn -0.83121848106384 0 0.5559458732605
vn 0.62586885690689 0 -0.77992832660675
vn -0.86871165037155 0 -0.49531817436218
vn -0.90924370288849 0 -0.41626417636871
vn -0.94259965419769 0 -0.33392491936684
vn -0.01018157042563 0 -0.99994814395905
vn -0.81331211328506 0 0.58182770013809
vn -0.58349776268005 0 0.81211477518082
vn -0.53432655334473 0 0.84527814388275
vn 0.94120681285858 0 -0.33783090114594
vn -0.13373532891273 0 0.99101710319519
vn -0.41709831357002 0 0.9088613986969
vn -0.41373085975647 0 -0.91039925813675
vn 0.00823858939111 0 0.99996608495712
# 117 normals

o 乂
usemtl default
f 137//1 136//1 135//1 134//1
f 136//1 137//1 139//1 138//1
f 138//1 139//1 141//1 140//1
f 140//1 141//1 143//1 142//1
f 142//1 143//1 145//1 144//1
f 142//1 144//1 147//1 146//1
f 146//1 147//1 149//1 148//1
f 148//1 149//1 151//1 150//1
f 148//1 150//1 153//1 152//1
f 148//1 152//1 155//1 154//1
f 148//1 154//1 157//1 156//1
f 144//1 145//1 159//1 158//1
f 158//1 159//1 161//1 160//1
f 160//1 161//1 30//1 162//1
f 162//1 30//1 164//1 163//1
f 164//1 30//1 166//1 165//1
f 166//1 30//1 161//1 167//1
f 145//1 143//1 169//1 168//1
f 168//1 169//1 171//1 170//1
f 170//1 171//1 173//1 172//1
f 172//1 173//1 175//1 174//1
f 174//1 175//1 177//1 176//1
f 47//2 2//3 1//3 46//2
f 48//6 3//5 2//4 47//4
f 46//10 1//9 4//8 49//7
f 49//7 4//8 6//11 51//11
f 50//13 5//12 3//5 48//6
f 51//11 6//11 8//15 53//14
f 52//17 7//16 5//12 50//13
f 53//14 8//15 10//18 55//18
f 54//20 9//19 7//16 52//17
f 56//22 11//22 14//21 59//21
f 58//26 13//25 9//24 54//23
f 59//21 14//21 16//28 61//27
f 60//30 15//29 13//25 58//26
f 63//32 18//32 17//31 62//31
f 61//27 16//28 18//32 63//32
f 65//34 20//34 19//33 64//33
f 62//31 17//31 20//34 65//34
f 67//38 22//37 21//36 66//35
f 64//33 19//33 22//37 67//38
f 69//41 24//41 23//40 68//39
f 66//35 21//36 24//43 69//42
f 68//39 23//40 15//45 60//44
f 57//48 12//48 26//47 71//46
f 70//50 25//50 11//49 56//49
f 71//46 26//47 28//52 73//51
f 72//54 27//53 25//50 70//50
f 74//55 29//55 27//53 72//54
f 76//56 32//56 31//56 75//56
f 75//57 31//57 29//55 74//55
f 78//59 34//59 33//58 77//58
f 77//60 33//61 32//61 76//60
f 73//51 28//52 35//63 79//62
f 79//62 35//63 34//59 78//59
f 55//66 10//66 37//65 81//64
f 80//69 36//68 12//67 57//67
f 81//64 37//65 39//71 83//70
f 82//72 38//72 36//68 80//69
f 83//70 39//71 41//73 85//73
f 84//75 40//74 38//72 82//72
f 85//73 41//73 43//77 87//76
f 86//78 42//78 40//74 84//75
f 89//79 45//80 44//80 88//79
f 87//76 43//77 45//81 89//81
f 88//82 44//82 42//78 86//78
f 91//83 47//2 46//2 90//83
f 92//5 48//6 47//4 91//4
f 90//10 46//10 49//7 93//7
f 93//7 49//7 51//11 95//84
f 94//13 50//13 48//6 92//5
f 95//84 51//11 53//14 97//14
f 96//85 52//17 50//13 94//13
f 97//14 53//14 55//18 99//18
f 98//86 54//20 52//17 96//85
f 100//22 56//22 59//21 103//21
f 102//26 58//26 54//23 98//23
f 103//21 59//21 61//27 105//87
f 104//88 60//30 58//26 102//26
f 107//32 63//32 62//31 106//31
f 105//87 61//27 63//32 107//32
f 109//34 65//34 64//33 108//33
f 106//31 62//31 65//34 109//34
f 111//90 67//38 66//35 110//89
f 108//33 64//33 67//38 111//90
f 113//41 69//41 68//39 112//39
f 110//89 66//35 69//42 113//42
f 112//39 68//39 60//44 104//44
f 101//91 57//48 71//46 115//46
f 114//93 70//50 56//49 100//92
f 115//46 71//46 73//51 117//51
f 116//54 72//54 70//50 114//93
f 118//55 74//55 72//54 116//54
f 120//56 76//56 75//56 119//56
f 119//94 75//57 74//55 118//55
f 122//59 78//59 77//58 121//95
f 121//60 77//60 76//60 120//60
f 117//51 73//51 79//62 123//62
f 123//62 79//62 78//59 122//59
f 99//96 55//66 81//64 125//65
f 124//98 80//69 57//67 101//97
f 125//65 81//64 83//70 127//70
f 126//72 82//72 80//69 124//98
f 127//70 83//70 85//73 129//73
f 128//75 84//75 82//72 126//72
f 129//73 85//73 87//76 131//76
f 130//99 86//78 84//75 128//75
f 133//79 89//79 88//79 132//79
f 131//76 87//76 89//81 133//100
f 132//101 88//82 86//78 130//99
f 135//2 91//83 90//83 134//2
f 136//5 92//5 91//4 135//4
f 134//10 90//10 93//7 137//102
f 137//102 93//7 95//84 139//11
f 138//13 94//13 92//5 136//5
f 139//11 95//84 97//14 141//15
f 140//103 96//85 94//13 138//13
f 141//15 97//14 99//18 143//104
f 142//105 98//86 96//85 140//103
f 144//22 100//22 103//21 147//21
f 146//107 102//26 98//23 142//106
f 147//21 103//21 105//87 149//28
f 148//108 104//88 102//26 146//107
f 151//32 107//32 106//31 150//31
f 149//28 105//87 107//32 151//32
f 153//34 109//34 108//33 152//33
f 150//31 106//31 109//34 153//34
f 155//109 111//90 110//89 154//89
f 152//33 108//33 111//90 155//109
f 157//41 113//41 112//39 156//40
f 154//89 110//89 113//42 157//42
f 156//40 112//39 104//44 148//110
f 145//91 101//91 115//46 159//111
f 158//50 114//93 100//92 144//92
f 159//111 115//46 117//51 161//112
f 160//53 116//54 114//93 158//50
f 162//55 118//55 116//54 160//53
f 164//113 120//56 119//56 163//113
f 163//94 119//94 118//55 162//55
f 166//114 122//59 121//95 165//95
f 165//60 121//60 120//60 164//60
f 161//112 117//51 123//62 167//115
f 167//115 123//62 122//59 166//114
f 143//96 99//96 125//65 169//65
f 168//98 124//98 101//97 145//97
f 169//65 125//65 127//70 171//71
f 170//72 126//72 124//98 168//98
f 171//71 127//70 129//73 173//73
f 172//75 128//75 126//72 170//72
f 173//73 129//73 131//76 175//116
f 174//117 130//99 128//75 172//75
f 177//80 133//79 132//79 176//80
f 175//116 131//76 133//100 177//100
f 176//101 132//101 130//99 174//117
f 4//1 3//1 2//1 1//1
f 3//1 4//1 6//1 5//1
f 5//1 6//1 8//1 7//1
f 7//1 8//1 10//1 9//1
f 9//1 10//1 12//1 11//1
f 9//1 11//1 14//1 13//1
f 13//1 14//1 16//1 15//1
f 15//1 16//1 18//1 17//1
f 15//1 17//1 20//1 19//1
f 15//1 19//1 22//1 21//1
f 15//1 21//1 24//1 23//1
f 11//1 12//1 26//1 25//1
f 25//1 26//1 28//1 27//1
f 27//1 28//1 178//1 29//1
f 29//1 178//1 32//1 31//1
f 32//1 178//1 34//1 33//1
f 34//1 178//1 28//1 35//1
f 12//1 10//1 37//1 36//1
f 36//1 37//1 39//1 38//1
f 38//1 39//1 41//1 40//1
f 40//1 41//1 43//1 42//1
f 42//1 43//1 45//1 44//1

