# WaveFront *.obj file (generated by Cinema 4D)

mtllib ./点横.mtl

v 249.9483642578125 0 92.77468109130859
v 247.52470397949219 0 95.6578369140625
v 250.26214599609375 0 104.90515899658203
v 258.28890991210938 0 93.52561187744141
v 267.59930419921875 0 93.57818603515625
v 256.27297973632812 0 111.93577575683594
v 273.05813598632812 0 93.57344818115234
v 270.82684326171875 0 108.43555450439453
v 287.37191772460938 0 93.01514434814453
v 285.38287353515625 0 107.45246124267578
v 300.16943359375 0 92.51880645751953
v 298.90756225585938 0 106.1669921875
v 314.8475341796875 0 92.38475799560547
v 314.19122314453125 0 104.94065856933594
v 339.02044677734375 0 90.26439666748047
v 339.065673828125 0 105.20249176025391
v 348.31674194335938 0 85.15940856933594
v 348.3897705078125 17.21660423278809 99.41297912597656
v 354.75588989257812 0 86.02979278564453
v 354.82891845703125 17.21660423278809 100.28336334228516
v 360.76144409179688 0 91.93740081787109
v 359.70938110351562 17.21660423278809 102.28898620605469
v 364.53411865234375 0 98.85431671142578
v 365.97384643554688 0 103.72890472412109
v 364.83755493164062 0 106.57680511474609
v 358.08770751953125 0 107.37313079833984
v 353.83840942382812 0 106.41324615478516
v 301.6944580078125 17.21660423278809 83.36356353759766
v 316.37252807617188 0 83.22951507568359
v 305.17416381835938 0 76.65048217773438
v 313.61038208007812 0 79.94701385498047
v 292.82089233398438 0 74.29608154296875
v 298.3829345703125 0 73.85326385498047
v 295.89694213867188 0 85.98765563964844
v 290.36968994140625 0 76.05015563964844
v 249.9483642578125 5.1402792930603 92.77468109130859
v 247.52470397949219 5.1402792930603 95.6578369140625
v 250.26214599609375 5.1402792930603 104.90515899658203
v 258.28890991210938 5.1402792930603 93.52561187744141
v 267.59930419921875 5.1402792930603 93.57818603515625
v 256.27297973632812 5.1402792930603 111.93577575683594
v 273.05813598632812 5.1402792930603 93.57344818115234
v 270.82684326171875 5.1402792930603 108.43555450439453
v 287.37191772460938 5.1402792930603 93.01514434814453
v 285.38287353515625 5.1402792930603 107.45246124267578
v 300.16943359375 5.1402792930603 92.51880645751953
v 298.90756225585938 5.1402792930603 106.1669921875
v 314.8475341796875 5.1402792930603 92.38475799560547
v 314.19122314453125 5.1402792930603 104.94065856933594
v 339.02044677734375 5.1402792930603 90.26439666748047
v 339.065673828125 5.1402792930603 105.20249176025391
v 348.31674194335938 5.1402792930603 85.15940856933594
v 354.75588989257812 5.1402792930603 86.02979278564453
v 360.76144409179688 5.1402792930603 91.93740081787109
v 364.53411865234375 5.1402792930603 98.85431671142578
v 365.97384643554688 5.1402792930603 103.72890472412109
v 364.83755493164062 5.1402792930603 106.57680511474609
v 358.08770751953125 5.1402792930603 107.37313079833984
v 353.83840942382812 5.1402792930603 106.41324615478516
v 316.37252807617188 5.1402792930603 83.22951507568359
v 305.17416381835938 5.1402792930603 76.65048217773438
v 313.61038208007812 5.1402792930603 79.94701385498047
v 292.82089233398438 5.1402792930603 74.29608154296875
v 298.3829345703125 5.1402792930603 73.85326385498047
v 295.89694213867188 5.1402792930603 85.98765563964844
v 290.36968994140625 5.1402792930603 76.05015563964844
v 249.9483642578125 9.96823120117188 92.77468109130859
v 247.52470397949219 9.96823120117188 95.6578369140625
v 250.26214599609375 9.96823120117188 104.90515899658203
v 258.28890991210938 9.96823120117188 93.52561187744141
v 267.59930419921875 9.96823120117188 93.57818603515625
v 256.27297973632812 9.96823120117188 111.93577575683594
v 273.05813598632812 9.96823120117188 93.57344818115234
v 270.82684326171875 9.96823120117188 108.43555450439453
v 287.37191772460938 9.96823120117188 93.01514434814453
v 285.38287353515625 9.96823120117188 107.45246124267578
v 300.16943359375 9.96823120117188 92.51880645751953
v 298.90756225585938 9.96823120117188 106.1669921875
v 314.8475341796875 9.96823120117188 92.38475799560547
v 314.19122314453125 9.96823120117188 104.94065856933594
v 339.02044677734375 9.96823120117188 90.26439666748047
v 339.065673828125 9.96823120117188 105.20249176025391
v 348.31674194335938 9.96823120117188 85.15940856933594
v 354.75588989257812 9.96823120117188 86.02979278564453
v 360.76144409179688 9.96823120117188 91.93740081787109
v 364.53411865234375 9.96823120117188 98.85431671142578
v 365.97384643554688 9.96823120117188 103.72890472412109
v 364.83755493164062 9.96823120117188 106.57680511474609
v 358.08770751953125 9.96823120117188 107.37313079833984
v 353.83840942382812 9.96823120117188 106.41324615478516
v 316.37252807617188 9.96823120117188 83.22951507568359
v 305.17416381835938 9.96823120117188 76.65048217773438
v 313.61038208007812 9.96823120117188 79.94701385498047
v 292.82089233398438 9.96823120117188 74.29608154296875
v 298.3829345703125 9.96823120117188 73.85326385498047
v 295.89694213867188 9.96823120117188 85.98765563964844
v 290.36968994140625 9.96823120117188 76.05015563964844
v 249.9483642578125 17.21660423278809 92.77468109130859
v 247.52470397949219 17.21660423278809 95.6578369140625
v 250.26214599609375 17.21660423278809 104.90515899658203
v 258.28890991210938 17.21660423278809 93.52561187744141
v 267.59930419921875 17.21660423278809 93.57818603515625
v 256.27297973632812 17.21660423278809 111.93577575683594
v 273.05813598632812 17.21660423278809 93.57344818115234
v 270.82684326171875 17.21660423278809 108.43555450439453
v 287.37191772460938 17.21660423278809 93.01514434814453
v 285.38287353515625 17.21660423278809 107.45246124267578
v 300.16943359375 17.21660423278809 92.51880645751953
v 298.90756225585938 17.21660423278809 106.1669921875
v 314.8475341796875 17.21660423278809 92.38475799560547
v 314.19122314453125 17.21660423278809 104.94065856933594
v 339.02044677734375 17.21660423278809 90.26439666748047
v 339.065673828125 17.21660423278809 105.20249176025391
v 348.31674194335938 17.21660423278809 85.15940856933594
v 354.75588989257812 17.21660423278809 86.02979278564453
v 360.76144409179688 17.21660423278809 91.93740081787109
v 364.53411865234375 17.21660423278809 98.85431671142578
v 365.97384643554688 17.21660423278809 103.72890472412109
v 364.83755493164062 17.21660423278809 106.57680511474609
v 358.08770751953125 17.21660423278809 107.37313079833984
v 353.83840942382812 17.21660423278809 106.41324615478516
v 316.37252807617188 17.21660423278809 83.22951507568359
v 305.17416381835938 17.21660423278809 76.65048217773438
v 313.61038208007812 17.21660423278809 79.94701385498047
v 292.82089233398438 17.21660423278809 74.29608154296875
v 298.3829345703125 17.21660423278809 73.85326385498047
v 295.89694213867188 17.21660423278809 85.98765563964844
v 290.36968994140625 17.21660423278809 76.05015563964844
v 348.3897705078125 0 99.41297912597656
v 354.82891845703125 0 100.28336334228516
v 359.70938110351562 0 102.28898620605469
v 301.6944580078125 0 83.36356353759766
# 132 vertices

vn 0 1 0
vn 0 0 0
vn -0.87873834371567 0 0.47730377316475
vn -0.87873834371567 0 0.47730380296707
vn -0.95886886119843 0 0.28384950757027
vn -0.7654681801796 0 -0.6434737443924
vn 0.08967106789351 0 -0.99597144126892
vn 0.08967106044292 0 -0.99597144126892
vn 0.04770110920072 0 -0.99886167049408
vn 0.04770111292601 0 -0.99886167049408
vn -0.76007914543152 0 0.6498304605484
vn 0.00238941726275 0 -0.99999713897705
vn 0.00238941749558 0 -0.99999713897705
vn 0.15114599466324 0 0.98851144313812
vn 0.1511460095644 0 0.98851144313812
vn 0.23383368551731 0 0.97227662801743
vn 0.23383367061615 0 0.97227662801743
vn -0.01992507837713 0 -0.99980145692825
vn -0.01992508210242 0 -0.99980145692825
vn 0.08100993186235 0 0.9967132806778
vn -0.03886489197612 0 -0.99924445152283
vn -0.03886489570141 0 -0.99924445152283
vn 0.08730278164148 0 0.99618184566498
vn -0.03875478357077 0 -0.99924874305725
vn -0.03875478729606 0 -0.99924874305725
vn 0.03476343303919 0 0.99939554929733
vn 0.0347634293139 0 0.99939554929733
vn -0.04613449051976 0 0.99893522262573
vn -0.04613448679447 0 0.99893522262573
vn -0.08738090097904 0 -0.99617499113083
vn -0.2905852496624 0 -0.95684909820557
vn -0.18287894129753 0 -0.98313546180725
vn -0.18287895619869 0 -0.98313546180725
vn 0.44015073776245 0 -0.89792388677597
vn 0.44015070796013 0 -0.89792388677597
vn 0.79821348190308 0 -0.60237461328506
vn 0.92366582155228 0 -0.38319903612137
vn 0.99893182516098 0 0.04620803892612
vn 0.99893182516098 0 0.04620804265141
vn 0.11716428399086 0 0.99311256408691
vn 0.11716429144144 0 0.99311256408691
vn -0.05234095826745 0 0.9986292719841
vn -0.05234095826745 0 0.9986292719841
vn 0.92879897356033 0 0.37058401107788
vn -0.15138559043407 0 0.98847478628159
vn -0.15138557553291 0 0.98847478628159
vn 0.98640930652618 0 0.16430673003197
vn 0.98640930652618 0 0.16430674493313
vn 0.37241822481155 0 -0.92806500196457
vn 0.37241819500923 0 -0.92806500196457
vn 0.58257508277893 0 -0.81277686357498
vn 0.58257514238358 0 -0.81277686357498
vn 0.76514834165573 0 -0.64385402202606
vn 0.76514840126038 0 -0.64385402202606
vn -0.34316277503967 0 -0.93927597999573
vn 0.15500493347645 0 -0.98791366815567
vn -0.8559313416481 0 0.51708948612213
vn -0.87391752004623 0 0.48607423901558
vn -0.87391752004623 0 0.48607420921326
vn -0.58194434642792 0 -0.81322860717773
vn -0.83684492111206 0 0.54743999242783
vn -0.83684498071671 0 0.54743999242783
vn -0.95886886119843 0 0.28384953737259
vn -0.76007914543152 0 0.64983052015305
vn 0.08730278909206 0 0.99618184566498
vn -0.08738090842962 0 -0.99617499113083
vn -0.29058521986008 0 -0.95684909820557
vn 0.79821354150772 0 -0.60237461328506
vn 0.92366582155228 0 -0.38319900631905
vn 0.99893182516098 0 0.04620803520083
vn -0.05234095081687 0 0.9986292719841
vn -0.34316277503967 0 -0.93927592039108
vn 0.15500490367413 0 -0.98791372776032
vn -0.58194434642792 0 -0.81322860717773
vn -0.87873834371567 0 0.47730383276939
vn -0.01992508023977 0 -0.99980145692825
vn 0.08100992441177 0 0.9967132806778
vn 0.03476343303919 0 0.99939554929733
vn -0.04613448306918 0 0.99893522262573
vn 0.99893182516098 0 0.04620802029967
vn 0.11716428399086 0 0.99311256408691
vn -0.05234095454216 0 0.9986292719841
# 82 normals

o 点横
usemtl default
f 98//1 99//1 100//1 101//1
f 101//1 100//1 103//1 102//1
f 102//1 103//1 105//1 104//1
f 104//1 105//1 107//1 106//1
f 106//1 107//1 109//1 108//1
f 108//1 109//1 111//1 110//1
f 110//1 111//1 113//1 112//1
f 112//1 113//1 18//1 114//1
f 114//1 18//1 20//1 115//1
f 115//1 20//1 22//1 116//1
f 116//1 22//1 118//1 117//1
f 118//1 22//1 120//1 119//1
f 120//1 22//1 20//1 121//1
f 121//1 20//1 18//1 113//1
f 108//1 110//1 122//1 28//1
f 28//1 122//1 124//1 123//1
f 28//1 123//1 126//1 125//1
f 28//1 125//1 128//1 127//1
f 28//1 127//1 108//1
f 37//5 2//5 3//4 38//3
f 36//6 1//6 2//6 37//6
f 39//10 4//9 1//8 36//7
f 38//3 3//4 6//11 41//11
f 40//13 5//12 4//9 39//10
f 41//17 6//16 8//15 43//14
f 42//19 7//18 5//12 40//13
f 43//14 8//15 10//20 45//20
f 44//22 9//21 7//18 42//19
f 45//20 10//20 12//23 47//23
f 46//25 11//24 9//21 44//22
f 47//23 12//23 14//27 49//26
f 49//26 14//27 16//29 51//28
f 50//31 15//31 13//30 48//30
f 52//33 17//32 15//31 50//31
f 53//35 19//34 17//32 52//33
f 54//36 21//36 19//34 53//35
f 56//39 24//38 23//37 55//37
f 55//37 23//37 21//36 54//36
f 58//43 26//42 25//41 57//40
f 57//44 25//44 24//38 56//39
f 59//46 27//45 26//42 58//43
f 51//28 16//29 27//45 59//46
f 48//47 13//48 29//48 60//47
f 62//52 31//51 30//50 61//49
f 60//54 29//53 31//51 62//52
f 64//56 33//56 32//55 63//55
f 61//49 30//50 33//56 64//56
f 66//59 35//58 34//57 65//57
f 63//55 32//55 35//60 66//60
f 65//57 34//57 11//62 46//61
f 68//63 37//5 38//3 69//4
f 67//6 36//6 37//6 68//6
f 70//10 39//10 36//7 67//7
f 69//4 38//3 41//11 72//64
f 71//13 40//13 39//10 70//10
f 72//17 41//17 43//14 74//14
f 73//19 42//19 40//13 71//13
f 74//14 43//14 45//20 76//20
f 75//22 44//22 42//19 73//19
f 76//20 45//20 47//23 78//65
f 77//25 46//25 44//22 75//22
f 78//65 47//23 49//26 80//26
f 80//26 49//26 51//28 82//28
f 81//67 50//31 48//30 79//66
f 83//32 52//33 50//31 81//67
f 84//35 53//35 52//33 83//32
f 85//68 54//36 53//35 84//35
f 87//70 56//39 55//37 86//69
f 86//69 55//37 54//36 85//68
f 89//71 58//43 57//40 88//40
f 88//44 57//44 56//39 87//70
f 90//45 59//46 58//43 89//71
f 82//28 51//28 59//46 90//45
f 79//47 48//47 60//47 91//47
f 93//52 62//52 61//49 92//50
f 91//54 60//54 62//52 93//52
f 95//73 64//56 63//55 94//72
f 92//50 61//49 64//56 95//73
f 97//59 66//59 65//57 96//57
f 94//72 63//55 66//60 97//74
f 96//57 65//57 46//61 77//61
f 99//63 68//63 69//4 100//75
f 98//6 67//6 68//6 99//6
f 101//10 70//10 67//7 98//7
f 100//75 69//4 72//64 103//64
f 102//12 71//13 70//10 101//10
f 103//17 72//17 74//14 105//15
f 104//76 73//19 71//13 102//12
f 105//15 74//14 76//20 107//77
f 106//22 75//22 73//19 104//76
f 107//77 76//20 78//65 109//23
f 108//25 77//25 75//22 106//22
f 109//23 78//65 80//26 111//78
f 111//78 80//26 82//28 113//79
f 112//67 81//67 79//66 110//66
f 114//33 83//32 81//67 112//67
f 115//35 84//35 83//32 114//33
f 116//68 85//68 84//35 115//35
f 118//80 87//70 86//69 117//69
f 117//69 86//69 85//68 116//68
f 120//82 89//71 88//40 119//81
f 119//44 88//44 87//70 118//80
f 121//45 90//45 89//71 120//82
f 113//79 82//28 90//45 121//45
f 110//47 79//47 91//47 122//47
f 124//52 93//52 92//50 123//50
f 122//54 91//54 93//52 124//52
f 126//73 95//73 94//72 125//72
f 123//50 92//50 95//73 126//73
f 128//58 97//59 96//57 127//57
f 125//72 94//72 97//74 128//74
f 127//57 96//57 77//61 108//62
f 1//1 2//1 3//1 4//1
f 4//1 3//1 6//1 5//1
f 5//1 6//1 8//1 7//1
f 7//1 8//1 10//1 9//1
f 9//1 10//1 12//1 11//1
f 11//1 12//1 14//1 13//1
f 13//1 14//1 16//1 15//1
f 15//1 16//1 129//1 17//1
f 17//1 129//1 130//1 19//1
f 19//1 130//1 131//1 21//1
f 21//1 131//1 24//1 23//1
f 24//1 131//1 26//1 25//1
f 26//1 131//1 130//1 27//1
f 27//1 130//1 129//1 16//1
f 11//1 13//1 29//1 132//1
f 132//1 29//1 31//1 30//1
f 132//1 30//1 33//1 32//1
f 132//1 32//1 35//1 34//1
f 132//1 34//1 11//1

