# WaveFront *.obj file (generated by Cinema 4D)

mtllib ./田.mtl

v 261.1629638671875 0 115.65644836425781
v 259.63229370117188 0 118.28569793701172
v 263.36648559570312 0 131.31256103515625
v 270.36019897460938 0 115.10098266601562
v 278.64215087890625 0 119.73645782470703
v 282.463134765625 0 131.82157897949219
v 299.13827514648438 0 117.8353271484375
v 299.36773681640625 0 129.8797607421875
v 317.3126220703125 0 115.41062927246094
v 317.54208374023438 0 127.45506286621094
v 335.42086791992188 0 112.50419616699219
v 335.49798583984375 0 125.68753051757812
v 341.46304321289062 0 110.17762756347656
v 346.33450317382812 16.56276702880859 121.47345733642578
v 346.67535400390625 0 110.47969055175781
v 354.25677490234375 0 115.37856292724609
v 357.54901123046875 0 123.82884979248047
v 354.22705078125 0 131.58409118652344
v 335.4417724609375 0 136.59344482421875
v 351.83316040039062 0 148.93045043945312
v 333.00033569335938 0 149.60377502441406
v 351.07797241210938 0 161.93930053710938
v 332.98818969726562 0 160.86003112792969
v 350.77801513671875 0 169.56053161621094
v 328.28570556640625 0 167.60911560058594
v 348.34469604492188 0 181.58529663085938
v 327.35809326171875 0 183.8154296875
v 343.30401611328125 0 187.52447509765625
v 333.07986450195312 0 190.77444458007812
v 315.87307739257812 0 182.37730407714844
v 316.62677001953125 0 167.66030883789062
v 297.31146240234375 0 182.96553039550781
v 297.79586791992188 0 170.56735229492188
v 286.14349365234375 0 183.76359558105469
v 285.6514892578125 0 171.982177734375
v 280.58175659179688 0 184.55679321289062
v 281.066162109375 16.56276702880859 172.15863037109375
v 280.24154663085938 16.56276702880859 159.21461486816406
v 284.87158203125 0 158.428955078125
v 278.72744750976562 16.56276702880859 144.2435302734375
v 284.2891845703125 0 143.4503173828125
v 300.33432006835938 0 141.32577514648438
v 299.49996948242188 0 155.84123229980469
v 317.10546875 0 137.01895141601562
v 316.2711181640625 0 151.53440856933594
v 265.06524658203125 0 147.46946716308594
v 264.46340942382812 0 160.5657958984375
v 265.74761962890625 0 176.72639465332031
v 276.99298095703125 0 189.41824340820312
v 265.975341796875 0 186.79988098144531
v 272.16818237304688 0 191.88925170898438
v 267.90692138671875 0 191.92265319824219
v 261.1629638671875 6.2427077293396 115.65644836425781
v 259.63229370117188 6.2427077293396 118.28569793701172
v 263.36648559570312 6.2427077293396 131.31256103515625
v 270.36019897460938 6.2427077293396 115.10098266601562
v 278.64215087890625 6.2427077293396 119.73645782470703
v 282.463134765625 6.2427077293396 131.82157897949219
v 299.13827514648438 6.2427077293396 117.8353271484375
v 299.36773681640625 6.2427077293396 129.8797607421875
v 317.3126220703125 6.2427077293396 115.41062927246094
v 317.54208374023438 6.2427077293396 127.45506286621094
v 335.42086791992188 6.2427077293396 112.50419616699219
v 335.49798583984375 6.2427077293396 125.68753051757812
v 341.46304321289062 6.2427077293396 110.17762756347656
v 346.67535400390625 6.2427077293396 110.47969055175781
v 354.25677490234375 6.2427077293396 115.37856292724609
v 357.54901123046875 6.2427077293396 123.82884979248047
v 354.22705078125 6.2427077293396 131.58409118652344
v 335.4417724609375 6.2427077293396 136.59344482421875
v 351.83316040039062 6.2427077293396 148.93045043945312
v 333.00033569335938 6.2427077293396 149.60377502441406
v 351.07797241210938 6.2427077293396 161.93930053710938
v 332.98818969726562 6.2427077293396 160.86003112792969
v 350.77801513671875 6.2427077293396 169.56053161621094
v 328.28570556640625 6.2427077293396 167.60911560058594
v 348.34469604492188 6.2427077293396 181.58529663085938
v 327.35809326171875 6.2427077293396 183.8154296875
v 343.30401611328125 6.2427077293396 187.52447509765625
v 333.07986450195312 6.2427077293396 190.77444458007812
v 315.87307739257812 6.2427077293396 182.37730407714844
v 316.62677001953125 6.2427077293396 167.66030883789062
v 297.31146240234375 6.2427077293396 182.96553039550781
v 297.79586791992188 6.2427077293396 170.56735229492188
v 286.14349365234375 6.2427077293396 183.76359558105469
v 285.6514892578125 6.2427077293396 171.982177734375
v 280.58175659179688 6.2427077293396 184.55679321289062
v 284.87158203125 6.2427077293396 158.428955078125
v 284.2891845703125 6.2427077293396 143.4503173828125
v 300.33432006835938 6.2427077293396 141.32577514648438
v 299.49996948242188 6.2427077293396 155.84123229980469
v 317.10546875 6.2427077293396 137.01895141601562
v 316.2711181640625 6.2427077293396 151.53440856933594
v 265.06524658203125 6.2427077293396 147.46946716308594
v 264.46340942382812 6.2427077293396 160.5657958984375
v 265.74761962890625 6.2427077293396 176.72639465332031
v 276.99298095703125 6.2427077293396 189.41824340820312
v 265.975341796875 6.2427077293396 186.79988098144531
v 272.16818237304688 6.2427077293396 191.88925170898438
v 267.90692138671875 6.2427077293396 191.92265319824219
v 261.1629638671875 11.78973960876465 115.65644836425781
v 259.63229370117188 11.78973960876465 118.28569793701172
v 263.36648559570312 11.78973960876465 131.31256103515625
v 270.36019897460938 11.78973960876465 115.10098266601562
v 278.64215087890625 11.78973960876465 119.73645782470703
v 282.463134765625 11.78973960876465 131.82157897949219
v 299.13827514648438 11.78973960876465 117.8353271484375
v 299.36773681640625 11.78973960876465 129.8797607421875
v 317.3126220703125 11.78973960876465 115.41062927246094
v 317.54208374023438 11.78973960876465 127.45506286621094
v 335.42086791992188 11.78973960876465 112.50419616699219
v 335.49798583984375 11.78973960876465 125.68753051757812
v 341.46304321289062 11.78973960876465 110.17762756347656
v 346.67535400390625 11.78973960876465 110.47969055175781
v 354.25677490234375 11.78973960876465 115.37856292724609
v 357.54901123046875 11.78973960876465 123.82884979248047
v 354.22705078125 11.78973960876465 131.58409118652344
v 335.4417724609375 11.78973960876465 136.59344482421875
v 351.83316040039062 11.78973960876465 148.93045043945312
v 333.00033569335938 11.78973960876465 149.60377502441406
v 351.07797241210938 11.78973960876465 161.93930053710938
v 332.98818969726562 11.78973960876465 160.86003112792969
v 350.77801513671875 11.78973960876465 169.56053161621094
v 328.28570556640625 11.78973960876465 167.60911560058594
v 348.34469604492188 11.78973960876465 181.58529663085938
v 327.35809326171875 11.78973960876465 183.8154296875
v 343.30401611328125 11.78973960876465 187.52447509765625
v 333.07986450195312 11.78973960876465 190.77444458007812
v 315.87307739257812 11.78973960876465 182.37730407714844
v 316.62677001953125 11.78973960876465 167.66030883789062
v 297.31146240234375 11.78973960876465 182.96553039550781
v 297.79586791992188 11.78973960876465 170.56735229492188
v 286.14349365234375 11.78973960876465 183.76359558105469
v 285.6514892578125 11.78973960876465 171.982177734375
v 280.58175659179688 11.78973960876465 184.55679321289062
v 284.87158203125 11.78973960876465 158.428955078125
v 284.2891845703125 11.78973960876465 143.4503173828125
v 300.33432006835938 11.78973960876465 141.32577514648438
v 299.49996948242188 11.78973960876465 155.84123229980469
v 317.10546875 11.78973960876465 137.01895141601562
v 316.2711181640625 11.78973960876465 151.53440856933594
v 265.06524658203125 11.78973960876465 147.46946716308594
v 264.46340942382812 11.78973960876465 160.5657958984375
v 265.74761962890625 11.78973960876465 176.72639465332031
v 276.99298095703125 11.78973960876465 189.41824340820312
v 265.975341796875 11.78973960876465 186.79988098144531
v 272.16818237304688 11.78973960876465 191.88925170898438
v 267.90692138671875 11.78973960876465 191.92265319824219
v 261.1629638671875 16.56276702880859 115.65644836425781
v 259.63229370117188 16.56276702880859 118.28569793701172
v 263.36648559570312 16.56276702880859 131.31256103515625
v 270.36019897460938 16.56276702880859 115.10098266601562
v 278.64215087890625 16.56276702880859 119.73645782470703
v 282.463134765625 16.56276702880859 131.82157897949219
v 299.13827514648438 16.56276702880859 117.8353271484375
v 299.36773681640625 16.56276702880859 129.8797607421875
v 317.3126220703125 16.56276702880859 115.41062927246094
v 317.54208374023438 16.56276702880859 127.45506286621094
v 335.42086791992188 16.56276702880859 112.50419616699219
v 335.49798583984375 16.56276702880859 125.68753051757812
v 341.46304321289062 16.56276702880859 110.17762756347656
v 346.67535400390625 16.56276702880859 110.47969055175781
v 354.25677490234375 16.56276702880859 115.37856292724609
v 357.54901123046875 16.56276702880859 123.82884979248047
v 354.22705078125 16.56276702880859 131.58409118652344
v 335.4417724609375 16.56276702880859 136.59344482421875
v 351.83316040039062 16.56276702880859 148.93045043945312
v 333.00033569335938 16.56276702880859 149.60377502441406
v 351.07797241210938 16.56276702880859 161.93930053710938
v 332.98818969726562 16.56276702880859 160.86003112792969
v 350.77801513671875 16.56276702880859 169.56053161621094
v 328.28570556640625 16.56276702880859 167.60911560058594
v 348.34469604492188 16.56276702880859 181.58529663085938
v 327.35809326171875 16.56276702880859 183.8154296875
v 343.30401611328125 16.56276702880859 187.52447509765625
v 333.07986450195312 16.56276702880859 190.77444458007812
v 315.87307739257812 16.56276702880859 182.37730407714844
v 316.62677001953125 16.56276702880859 167.66030883789062
v 297.31146240234375 16.56276702880859 182.96553039550781
v 297.79586791992188 16.56276702880859 170.56735229492188
v 286.14349365234375 16.56276702880859 183.76359558105469
v 285.6514892578125 16.56276702880859 171.982177734375
v 280.58175659179688 16.56276702880859 184.55679321289062
v 284.87158203125 16.56276702880859 158.428955078125
v 284.2891845703125 16.56276702880859 143.4503173828125
v 300.33432006835938 16.56276702880859 141.32577514648438
v 299.49996948242188 16.56276702880859 155.84123229980469
v 317.10546875 16.56276702880859 137.01895141601562
v 316.2711181640625 16.56276702880859 151.53440856933594
v 265.06524658203125 16.56276702880859 147.46946716308594
v 264.46340942382812 16.56276702880859 160.5657958984375
v 265.74761962890625 16.56276702880859 176.72639465332031
v 276.99298095703125 16.56276702880859 189.41824340820312
v 265.975341796875 16.56276702880859 186.79988098144531
v 272.16818237304688 16.56276702880859 191.88925170898438
v 267.90692138671875 16.56276702880859 191.92265319824219
v 346.33450317382812 0 121.47345733642578
v 281.066162109375 0 172.15863037109375
v 280.24154663085938 0 159.21461486816406
v 278.72744750976562 0 144.2435302734375
# 200 vertices

vn 0 1 0
vn -0.9816318154335 0 0.19078527390957
vn -0.9816318154335 0 0.19078524410725
vn -0.96128517389297 0 0.27555546164513
vn -0.96128517389297 0 0.27555549144745
vn -0.8642161488533 0 -0.50312066078186
vn -0.8642161488533 0 -0.50312072038651
vn -0.06028500944376 0 -0.99818122386932
vn -0.06028501316905 0 -0.99818122386932
vn 0.22307927906513 0 -0.97480028867722
vn 0.20737172663212 0 -0.97826224565506
vn 0.20737175643444 0 -0.97826218605042
vn 0.11411878466606 0 0.99346709251404
vn -0.11232295632362 0 -0.9936717748642
vn -0.1453710347414 0 -0.98937720060349
vn 0.09796391427517 0 0.99518996477127
vn 0.09796391427517 0 0.99518996477127
vn -0.26031774282455 0 -0.96552300453186
vn -0.15421681106091 0 -0.98803704977036
vn -0.15421679615974 0 -0.98803704977036
vn 0.31055980920792 0 -0.95055383443832
vn 0.31055977940559 0 -0.95055383443832
vn 0.77485257387161 0 -0.63214194774628
vn 0.77485257387161 0 -0.63214200735092
vn 0.9192185997963 0 0.39374762773514
vn 0.96352452039719 0 0.26761996746063
vn 0.93178051710129 0 -0.36302220821381
vn -0.99998670816422 0 -0.00515432516113
vn -0.99998670816422 0 -0.00515432562679
vn 0.99524450302124 0 0.09740824252367
vn -0.95390301942825 0 -0.30011501908302
vn -0.95390301942825 0 -0.3001149892807
vn -0.99999940395355 0 -0.00107904348988
vn -0.99999940395355 0 -0.00107904337347
vn 0.99881625175476 0 0.04864309355617
vn 0.99881625175476 0 0.04864309355617
vn -0.82047933340073 0 -0.57167619466782
vn 0.99286830425262 0 0.11921607702971
vn 0.89970391988754 0 0.43650075793266
vn 0.89970391988754 0 0.43650075793266
vn 0.5542066693306 0 0.83237910270691
vn 0.5542066693306 0 0.83237910270691
vn 0.30293536186218 0 0.95301109552383
vn -0.77243012189865 0 0.63509970903397
vn -0.00439085997641 0 -0.99999034404755
vn -0.12424728274345 0 0.99225127696991
vn -0.04642797261477 0 0.99892163276672
vn 0.05148662254214 0 0.99867367744446
vn -0.11571780592203 0 -0.9932821393013
vn -0.11571781337261 0 -0.9932821393013
vn 0.10629905760288 0 0.99433422088623
vn 0.10629904270172 0 0.99433422088623
vn 0.14118826389313 0 0.9899827837944
vn 0.14118824899197 0 0.9899827837944
vn 0.99834841489792 0 -0.05744900554419
vn 0.17419284582138 0 0.98471158742905
vn -0.13126467168331 0 -0.99134737253189
vn 0.1146439909935 0 0.99340665340424
vn 0.11464398354292 0 0.99340665340424
vn -0.02319944649935 0 -0.99973088502884
vn -0.0231994446367 0 -0.99973088502884
vn -0.99337100982666 0 -0.11495255678892
vn -0.99337100982666 0 -0.1149525642395
vn 0.99975687265396 0 -0.02204933576286
vn 0.9989595413208 0 0.045604955405
vn 0.9989595413208 0 0.04560495913029
vn -0.99645328521729 0 0.08414763957262
vn -0.99645328521729 0 0.08414763212204
vn 0.98789435625076 0 -0.15512810647488
vn -0.99956732988358 0 0.02941288053989
vn -0.9998607635498 0 0.01668749004602
vn -0.9998607635498 0 0.01668749004602
vn -0.99870228767395 0 0.0509285107255
vn -0.99870228767395 0 0.05092851445079
vn -0.9817031621933 0 0.19041784107685
vn -0.9817031621933 0 0.19041785597801
vn 0.80452954769135 0 0.59391260147095
vn 0.80452960729599 0 0.59391260147095
vn 0.6473485827446 0 0.76219403743744
vn 0.6473485827446 0 0.76219409704208
vn 0.2382642775774 0 0.97120034694672
vn 0.23826426267624 0 0.97120034694672
vn 0.00783816445619 0 0.99996930360794
vn 0.00783816445619 0 0.99996930360794
vn -0.93569469451904 0 0.35281071066856
vn 0.20737175643444 0 -0.97826218605042
vn 0.11411877721548 0 0.99346709251404
vn -0.1123229637742 0 -0.9936717748642
vn 0.09796392172575 0 0.99518996477127
vn 0.31055983901024 0 -0.95055383443832
vn 0.77485257387161 0 -0.63214194774628
vn 0.99286830425262 0 0.11921608448029
vn -0.00439085951075 0 -0.99999034404755
vn 0.05148662626743 0 0.99867367744446
vn -0.11571779847145 0 -0.9932821393013
vn 0.14118826389313 0 0.9899827837944
vn 0.99834841489792 0 -0.05744900554419
vn -0.99337100982666 0 -0.11495254933834
vn 0.99975687265396 0 -0.02204933576286
vn -0.99645328521729 0 0.08414763212204
vn 0.98789435625076 0 -0.15512812137604
vn -0.99956732988358 0 0.02941288240254
vn -0.9998607635498 0 0.01668749377131
vn 0.80452960729599 0 0.5939125418663
vn 0.23826429247856 0 0.97120034694672
vn -0.93569469451904 0 0.35281071066856
vn -0.1453710347414 0 -0.98937720060349
vn 0.09796392172575 0 0.99518996477127
vn -0.26031774282455 0 -0.96552300453186
vn 0.31055980920792 0 -0.95055383443832
vn 0.77485263347626 0 -0.63214194774628
vn 0.99524450302124 0 0.09740824997425
vn -0.95390301942825 0 -0.3001149892807
vn -0.99999940395355 0 -0.00107904348988
vn 0.99881625175476 0 0.04864308983088
vn 0.8997038602829 0 0.43650075793266
vn 0.55420660972595 0 0.83237916231155
vn -0.77243012189865 0 0.63509976863861
vn -0.11571780592203 0 -0.9932821393013
vn -0.99956732988358 0 0.02941288426518
vn -0.9998607635498 0 0.01668749190867
vn -0.99870228767395 0 0.05092851817608
vn 0.80452960729599 0 0.5939125418663
vn 0.64734864234924 0 0.76219403743744
vn 0.00783816538751 0 0.99996930360794
# 125 normals

o 田
usemtl default
f 149//1 150//1 151//1 152//1
f 152//1 151//1 154//1 153//1
f 153//1 154//1 156//1 155//1
f 155//1 156//1 158//1 157//1
f 157//1 158//1 160//1 159//1
f 159//1 160//1 14//1 161//1
f 161//1 14//1 163//1 162//1
f 163//1 14//1 165//1 164//1
f 165//1 14//1 160//1 166//1
f 165//1 166//1 168//1 167//1
f 167//1 168//1 170//1 169//1
f 169//1 170//1 172//1 171//1
f 171//1 172//1 174//1 173//1
f 173//1 174//1 176//1 175//1
f 174//1 172//1 178//1 177//1
f 177//1 178//1 180//1 179//1
f 179//1 180//1 182//1 181//1
f 181//1 182//1 37//1 183//1
f 37//1 182//1 184//1 38//1
f 38//1 184//1 185//1 40//1
f 185//1 184//1 187//1 186//1
f 186//1 187//1 189//1 188//1
f 188//1 189//1 168//1 166//1
f 189//1 187//1 180//1 178//1
f 186//1 188//1 158//1 156//1
f 40//1 185//1 154//1 151//1
f 38//1 40//1 151//1 190//1
f 38//1 190//1 191//1 37//1
f 183//1 37//1 191//1 192//1
f 183//1 192//1 194//1 193//1
f 193//1 194//1 196//1 195//1
f 54//5 2//4 3//3 55//2
f 53//6 1//7 2//7 54//6
f 56//10 4//10 1//9 53//8
f 57//12 5//11 4//10 56//10
f 58//13 6//13 8//13 60//13
f 59//14 7//14 5//11 57//12
f 61//15 9//15 7//14 59//14
f 62//16 10//17 12//17 64//16
f 63//18 11//18 9//15 61//15
f 65//20 13//19 11//18 63//18
f 67//24 16//23 15//22 66//21
f 66//21 15//22 13//19 65//20
f 69//26 18//26 17//25 68//25
f 68//27 17//27 16//23 67//24
f 64//28 12//29 19//29 70//28
f 71//30 20//30 18//26 69//26
f 72//34 21//33 23//32 74//31
f 73//36 22//35 20//30 71//30
f 74//31 23//32 25//37 76//37
f 75//38 24//38 22//35 73//36
f 77//40 26//39 24//38 75//38
f 80//43 29//43 28//42 79//41
f 78//44 27//44 29//44 80//44
f 79//41 28//42 26//39 77//40
f 76//45 25//45 31//45 82//45
f 81//47 30//47 27//46 78//46
f 83//48 32//48 30//47 81//47
f 84//49 33//50 35//50 86//49
f 85//52 34//51 32//48 83//48
f 87//54 36//53 34//51 85//52
f 86//55 35//55 39//55 88//55
f 88//56 39//56 43//56 91//56
f 90//57 42//57 41//57 89//57
f 93//58 45//59 21//59 72//58
f 70//60 19//61 44//61 92//60
f 91//62 43//63 33//63 84//62
f 82//64 31//64 45//64 93//64
f 92//65 44//66 10//66 62//65
f 60//67 8//68 42//68 90//67
f 89//69 41//69 6//69 58//69
f 55//2 3//3 46//70 94//70
f 94//70 46//70 47//72 95//71
f 95//71 47//72 48//74 96//73
f 96//73 48//74 50//76 98//75
f 97//80 49//79 36//78 87//77
f 100//84 52//83 51//82 99//81
f 98//75 50//76 52//85 100//85
f 99//81 51//82 49//79 97//80
f 102//5 54//5 55//2 103//2
f 101//6 53//6 54//6 102//6
f 104//10 56//10 53//8 101//8
f 105//86 57//12 56//10 104//10
f 106//87 58//13 60//13 108//87
f 107//88 59//14 57//12 105//86
f 109//15 61//15 59//14 107//88
f 110//89 62//16 64//16 112//89
f 111//18 63//18 61//15 109//15
f 113//20 65//20 63//18 111//18
f 115//91 67//24 66//21 114//90
f 114//90 66//21 65//20 113//20
f 117//26 69//26 68//25 116//25
f 116//27 68//27 67//24 115//91
f 112//28 64//28 70//28 118//28
f 119//30 71//30 69//26 117//26
f 120//34 72//34 74//31 122//31
f 121//36 73//36 71//30 119//30
f 122//31 74//31 76//37 124//37
f 123//92 75//38 73//36 121//36
f 125//40 77//40 75//38 123//92
f 128//43 80//43 79//41 127//41
f 126//44 78//44 80//44 128//44
f 127//41 79//41 77//40 125//40
f 124//93 76//45 82//45 130//93
f 129//47 81//47 78//46 126//46
f 131//94 83//48 81//47 129//47
f 132//95 84//49 86//49 134//95
f 133//52 85//52 83//48 131//94
f 135//96 87//54 85//52 133//52
f 134//97 86//55 88//55 136//97
f 136//56 88//56 91//56 139//56
f 138//57 90//57 89//57 137//57
f 141//58 93//58 72//58 120//58
f 118//60 70//60 92//60 140//60
f 139//98 91//62 84//62 132//98
f 130//99 82//64 93//64 141//99
f 140//65 92//65 62//65 110//65
f 108//100 60//67 90//67 138//100
f 137//101 89//69 58//69 106//101
f 103//2 55//2 94//70 142//102
f 142//102 94//70 95//71 143//103
f 143//103 95//71 96//73 144//74
f 144//74 96//73 98//75 146//75
f 145//80 97//80 87//77 135//104
f 148//84 100//84 99//81 147//105
f 146//75 98//75 100//85 148//106
f 147//105 99//81 97//80 145//80
f 150//4 102//5 103//2 151//2
f 149//6 101//6 102//6 150//6
f 152//10 104//10 101//8 149//9
f 153//12 105//86 104//10 152//10
f 154//87 106//87 108//87 156//87
f 155//88 107//88 105//86 153//12
f 157//107 109//15 107//88 155//88
f 158//108 110//89 112//89 160//108
f 159//109 111//18 109//15 157//107
f 161//19 113//20 111//18 159//109
f 163//111 115//91 114//90 162//110
f 162//110 114//90 113//20 161//19
f 165//26 117//26 116//25 164//25
f 164//27 116//27 115//91 163//111
f 160//29 112//28 118//28 166//29
f 167//112 119//30 117//26 165//26
f 168//114 120//34 122//31 170//113
f 169//115 121//36 119//30 167//112
f 170//113 122//31 124//37 172//37
f 171//38 123//92 121//36 169//115
f 173//116 125//40 123//92 171//38
f 176//43 128//43 127//41 175//117
f 174//118 126//44 128//44 176//118
f 175//117 127//41 125//40 173//116
f 172//93 124//93 130//93 178//93
f 177//47 129//47 126//46 174//46
f 179//48 131//94 129//47 177//47
f 180//119 132//95 134//95 182//119
f 181//52 133//52 131//94 179//48
f 183//96 135//96 133//52 181//52
f 182//97 134//97 136//97 184//97
f 184//56 136//56 139//56 187//56
f 186//57 138//57 137//57 185//57
f 189//59 141//58 120//58 168//59
f 166//61 118//60 140//60 188//61
f 187//98 139//98 132//98 180//98
f 178//99 130//99 141//99 189//99
f 188//65 140//65 110//65 158//65
f 156//100 108//100 138//100 186//100
f 185//101 137//101 106//101 154//101
f 151//2 103//2 142//102 190//120
f 190//120 142//102 143//103 191//121
f 191//121 143//103 144//74 192//122
f 192//122 144//74 146//75 194//76
f 193//124 145//80 135//104 183//123
f 196//125 148//84 147//105 195//81
f 194//76 146//75 148//106 196//106
f 195//81 147//105 145//80 193//124
f 1//1 2//1 3//1 4//1
f 4//1 3//1 6//1 5//1
f 5//1 6//1 8//1 7//1
f 7//1 8//1 10//1 9//1
f 9//1 10//1 12//1 11//1
f 11//1 12//1 197//1 13//1
f 13//1 197//1 16//1 15//1
f 16//1 197//1 18//1 17//1
f 18//1 197//1 12//1 19//1
f 18//1 19//1 21//1 20//1
f 20//1 21//1 23//1 22//1
f 22//1 23//1 25//1 24//1
f 24//1 25//1 27//1 26//1
f 26//1 27//1 29//1 28//1
f 27//1 25//1 31//1 30//1
f 30//1 31//1 33//1 32//1
f 32//1 33//1 35//1 34//1
f 34//1 35//1 198//1 36//1
f 198//1 35//1 39//1 199//1
f 199//1 39//1 41//1 200//1
f 41//1 39//1 43//1 42//1
f 42//1 43//1 45//1 44//1
f 44//1 45//1 21//1 19//1
f 45//1 43//1 33//1 31//1
f 42//1 44//1 10//1 8//1
f 200//1 41//1 6//1 3//1
f 199//1 200//1 3//1 46//1
f 199//1 46//1 47//1 198//1
f 36//1 198//1 47//1 48//1
f 36//1 48//1 50//1 49//1
f 49//1 50//1 52//1 51//1

