# WaveFront *.obj file (generated by Cinema 4D)

mtllib ./文.mtl

v 174.69046020507812 0 -63.42540740966797
v 177.41535949707031 0 -65.14640045166016
v 186.4505615234375 0 -62.27807998657227
v 176.55487060546875 0 -54.67704010009766
v 191.98640441894531 0 -58.72136688232422
v 180.57051086425781 0 -47.16205215454102
v 193.82212829589844 0 -54.0746955871582
v 192.33061218261719 0 -47.87913131713867
v 193.36320495605469 0 -33.59491729736328
v 179.53791809082031 0 -32.82046890258789
v 208.62265014648438 0 -50.46061706542969
v 210.11416625976562 0 -33.93911361694336
v 220.32537841796875 0 -52.58317184448242
v 227.32406616210938 0 -42.77352905273438
v 230.07765197753906 0 -36.97953033447266
v 227.20933532714844 0 -33.42281723022461
v 205.238037109375 0 -19.36806678771973
v 188.88862609863281 0 -23.32634353637695
v 199.38665771484375 0 -7.72270202636719
v 184.41404724121094 0 -15.29505729675293
v 168.17938232421875 0 -31.95997619628906
v 169.21197509765625 0 -46.30155944824219
v 156.36192321777344 0 -31.61577796936035
v 157.39451599121094 0 -45.95735931396484
v 151.19894409179688 0 -30.35371780395508
v 152.63310241699219 0 -46.7891731262207
v 146.55227661132812 0 -38.06948852539062
v 149.13375854492188 0 -48.39542770385742
v 144.60182189941406 0 -45.18291473388672
v 146.60964965820312 0 -47.99386596679688
v 187.00065612792969 0 7.44669818878174
v 175.513916015625 0 -3.49883484840393
v 220.66455078125 0 8.06891822814941
v 206.93644714355469 0 24.89826583862305
v 164.51712036132812 0 -15.05160427093506
v 170.01531982421875 0 -23.36799049377441
v 155.05853271484375 0 -24.19390106201172
v 156.58050537109375 0 -27.1935977935791
v 218.15090942382812 0 23.12915420532227
v 211.855224609375 0 30.05741691589355
v 176.88255310058594 0 16.80334854125977
v 166.86863708496094 0 6.74294662475586
v 162.60430908203125 0 24.86121940612793
v 155.93403625488281 0 17.91853713989258
v 148.40257263183594 0 29.03364562988281
v 143.66932678222656 0 28.21047210693359
v 174.69046020507812 3.78451800346375 -63.42540740966797
v 177.41535949707031 3.78451800346375 -65.14640045166016
v 186.4505615234375 3.78451800346375 -62.27807998657227
v 176.55487060546875 3.78451800346375 -54.67704010009766
v 191.98640441894531 3.78451800346375 -58.72136688232422
v 180.57051086425781 3.78451800346375 -47.16205215454102
v 193.82212829589844 3.78451800346375 -54.0746955871582
v 192.33061218261719 3.78451800346375 -47.87913131713867
v 193.36320495605469 3.78451800346375 -33.59491729736328
v 179.53791809082031 3.78451800346375 -32.82046890258789
v 208.62265014648438 3.78451800346375 -50.46061706542969
v 210.11416625976562 3.78451800346375 -33.93911361694336
v 220.32537841796875 3.78451800346375 -52.58317184448242
v 227.32406616210938 3.78451800346375 -42.77352905273438
v 230.07765197753906 3.78451800346375 -36.97953033447266
v 227.20933532714844 3.78451800346375 -33.42281723022461
v 205.238037109375 3.78451800346375 -19.36806678771973
v 188.88862609863281 3.78451800346375 -23.32634353637695
v 199.38665771484375 3.78451800346375 -7.72270202636719
v 184.41404724121094 3.78451800346375 -15.29505729675293
v 168.17938232421875 3.78451800346375 -31.95997619628906
v 169.21197509765625 3.78451800346375 -46.30155944824219
v 156.36192321777344 3.78451800346375 -31.61577796936035
v 157.39451599121094 3.78451800346375 -45.95735931396484
v 151.19894409179688 3.78451800346375 -30.35371780395508
v 152.63310241699219 3.78451800346375 -46.7891731262207
v 146.55227661132812 3.78451800346375 -38.06948852539062
v 149.13375854492188 3.78451800346375 -48.39542770385742
v 144.60182189941406 3.78451800346375 -45.18291473388672
v 146.60964965820312 3.78451800346375 -47.99386596679688
v 187.00065612792969 3.78451800346375 7.44669818878174
v 175.513916015625 3.78451800346375 -3.49883484840393
v 220.66455078125 3.78451800346375 8.06891822814941
v 206.93644714355469 3.78451800346375 24.89826583862305
v 164.51712036132812 3.78451800346375 -15.05160427093506
v 170.01531982421875 3.78451800346375 -23.36799049377441
v 155.05853271484375 3.78451800346375 -24.19390106201172
v 156.58050537109375 3.78451800346375 -27.1935977935791
v 218.15090942382812 3.78451800346375 23.12915420532227
v 211.855224609375 3.78451800346375 30.05741691589355
v 176.88255310058594 3.78451800346375 16.80334854125977
v 166.86863708496094 3.78451800346375 6.74294662475586
v 162.60430908203125 3.78451800346375 24.86121940612793
v 155.93403625488281 3.78451800346375 17.91853713989258
v 148.40257263183594 3.78451800346375 29.03364562988281
v 143.66932678222656 3.78451800346375 28.21047210693359
v 174.69046020507812 10.4958610534668 -63.42540740966797
v 177.41535949707031 10.4958610534668 -65.14640045166016
v 186.4505615234375 10.4958610534668 -62.27807998657227
v 176.55487060546875 10.4958610534668 -54.67704010009766
v 191.98640441894531 10.4958610534668 -58.72136688232422
v 180.57051086425781 10.4958610534668 -47.16205215454102
v 193.82212829589844 10.4958610534668 -54.0746955871582
v 192.33061218261719 10.4958610534668 -47.87913131713867
v 193.36320495605469 10.4958610534668 -33.59491729736328
v 179.53791809082031 10.4958610534668 -32.82046890258789
v 208.62265014648438 10.4958610534668 -50.46061706542969
v 210.11416625976562 10.4958610534668 -33.93911361694336
v 220.32537841796875 10.4958610534668 -52.58317184448242
v 227.32406616210938 10.4958610534668 -42.77352905273438
v 230.07765197753906 10.4958610534668 -36.97953033447266
v 227.20933532714844 10.4958610534668 -33.42281723022461
v 205.238037109375 10.4958610534668 -19.36806678771973
v 188.88862609863281 10.4958610534668 -23.32634353637695
v 199.38665771484375 10.4958610534668 -7.72270202636719
v 184.41404724121094 10.4958610534668 -15.29505729675293
v 168.17938232421875 10.4958610534668 -31.95997619628906
v 169.21197509765625 10.4958610534668 -46.30155944824219
v 156.36192321777344 10.4958610534668 -31.61577796936035
v 157.39451599121094 10.4958610534668 -45.95735931396484
v 151.19894409179688 10.4958610534668 -30.35371780395508
v 152.63310241699219 10.4958610534668 -46.7891731262207
v 146.55227661132812 10.4958610534668 -38.06948852539062
v 149.13375854492188 10.4958610534668 -48.39542770385742
v 144.60182189941406 10.4958610534668 -45.18291473388672
v 146.60964965820312 10.4958610534668 -47.99386596679688
v 187.00065612792969 10.4958610534668 7.44669818878174
v 175.513916015625 10.4958610534668 -3.49883484840393
v 220.66455078125 10.4958610534668 8.06891822814941
v 206.93644714355469 10.4958610534668 24.89826583862305
v 164.51712036132812 10.4958610534668 -15.05160427093506
v 170.01531982421875 10.4958610534668 -23.36799049377441
v 155.05853271484375 10.4958610534668 -24.19390106201172
v 156.58050537109375 10.4958610534668 -27.1935977935791
v 218.15090942382812 10.4958610534668 23.12915420532227
v 211.855224609375 10.4958610534668 30.05741691589355
v 176.88255310058594 10.4958610534668 16.80334854125977
v 166.86863708496094 10.4958610534668 6.74294662475586
v 162.60430908203125 10.4958610534668 24.86121940612793
v 155.93403625488281 10.4958610534668 17.91853713989258
v 148.40257263183594 10.4958610534668 29.03364562988281
v 143.66932678222656 10.4958610534668 28.21047210693359
v 174.69046020507812 18.87178421020508 -63.42540740966797
v 177.41535949707031 18.87178421020508 -65.14640045166016
v 186.4505615234375 18.87178421020508 -62.27807998657227
v 176.55487060546875 18.87178421020508 -54.67704010009766
v 191.98640441894531 18.87178421020508 -58.72136688232422
v 180.57051086425781 18.87178421020508 -47.16205215454102
v 193.82212829589844 18.87178421020508 -54.0746955871582
v 192.33061218261719 18.87178421020508 -47.87913131713867
v 193.36320495605469 18.87178421020508 -33.59491729736328
v 179.53791809082031 18.87178421020508 -32.82046890258789
v 208.62265014648438 18.87178421020508 -50.46061706542969
v 210.11416625976562 18.87178421020508 -33.93911361694336
v 220.32537841796875 18.87178421020508 -52.58317184448242
v 227.32406616210938 18.87178421020508 -42.77352905273438
v 230.07765197753906 18.87178421020508 -36.97953033447266
v 227.20933532714844 18.87178421020508 -33.42281723022461
v 205.238037109375 18.87178421020508 -19.36806678771973
v 188.88862609863281 18.87178421020508 -23.32634353637695
v 199.38665771484375 18.87178421020508 -7.72270202636719
v 184.41404724121094 18.87178421020508 -15.29505729675293
v 168.17938232421875 18.87178421020508 -31.95997619628906
v 169.21197509765625 18.87178421020508 -46.30155944824219
v 156.36192321777344 18.87178421020508 -31.61577796936035
v 157.39451599121094 18.87178421020508 -45.95735931396484
v 151.19894409179688 18.87178421020508 -30.35371780395508
v 152.63310241699219 18.87178421020508 -46.7891731262207
v 146.55227661132812 18.87178421020508 -38.06948852539062
v 149.13375854492188 18.87178421020508 -48.39542770385742
v 144.60182189941406 18.87178421020508 -45.18291473388672
v 146.60964965820312 18.87178421020508 -47.99386596679688
v 187.00065612792969 18.87178421020508 7.44669818878174
v 175.513916015625 18.87178421020508 -3.49883484840393
v 220.66455078125 18.87178421020508 8.06891822814941
v 206.93644714355469 18.87178421020508 24.89826583862305
v 164.51712036132812 18.87178421020508 -15.05160427093506
v 170.01531982421875 18.87178421020508 -23.36799049377441
v 155.05853271484375 18.87178421020508 -24.19390106201172
v 156.58050537109375 18.87178421020508 -27.1935977935791
v 218.15090942382812 18.87178421020508 23.12915420532227
v 211.855224609375 18.87178421020508 30.05741691589355
v 176.88255310058594 18.87178421020508 16.80334854125977
v 166.86863708496094 18.87178421020508 6.74294662475586
v 162.60430908203125 18.87178421020508 24.86121940612793
v 155.93403625488281 18.87178421020508 17.91853713989258
v 148.40257263183594 18.87178421020508 29.03364562988281
v 143.66932678222656 18.87178421020508 28.21047210693359
# 184 vertices

vn 0 1 0
vn -0.53399389982224 0 -0.84548830986023
vn 0.30257937312126 0 -0.95312416553497
vn 0.42524901032448 0 -0.90507638454437
vn -0.93924868106842 0 0.34323745965958
vn -0.93924868106842 0 0.34323745965958
vn -0.97803634405136 0 0.2084344625473
vn -0.88198000192642 0 0.47128677368164
vn 0.77252948284149 0 -0.63497889041901
vn 0.99755108356476 0 -0.06994204223156
vn 0.99755108356476 0 -0.06994204968214
vn 0.97222393751144 0 0.23405256867409
vn 0.97222393751144 0 0.23405255377293
vn 0.05592912063003 0 0.99843472242355
vn 0.0657381862402 0 0.99783688783646
vn -0.15649835765362 0 -0.98767822980881
vn -0.16749010980129 0 -0.98587375879288
vn -0.16749009490013 0 -0.98587375879288
vn 0.81405520439148 0 -0.58078753948212
vn 0.86195999383926 0 -0.50697630643845
vn 0.86195999383926 0 -0.50697630643845
vn -0.1784610748291 0 -0.98394697904587
vn -0.17846105992794 0 -0.98394697904587
vn 0.77841305732727 0 0.62775242328644
vn -0.0301875397563 0 0.99954426288605
vn 0.90319073200226 0 -0.42923951148987
vn -0.89621764421463 0 -0.44361457228661
vn -0.91674393415451 0 -0.3994754254818
vn -0.91674393415451 0 -0.3994754254818
vn 0.94830948114395 0 0.31734710931778
vn 0.92327576875687 0 0.38413786888123
vn -0.87356775999069 0 -0.4867025911808
vn 0.89354467391968 0 0.44897425174713
vn -0.05234162509441 0 -0.99862921237946
vn -0.05234162136912 0 -0.99862921237946
vn -0.07554090023041 0 -0.9971427321434
vn 0.05234154313803 0 0.99862921237946
vn 0.05234154686332 0 0.99862921237946
vn 0.07185568660498 0 -0.99741506576538
vn 0.13402590155602 0 0.99097782373428
vn 0.29708644747734 0 -0.95485055446625
vn 0.29708644747734 0 -0.95485061407089
vn 0.23745286464691 0 0.9713990688324
vn 0.23745284974575 0 0.9713990688324
vn 0.13585750758648 0 -0.9907283782959
vn -0.85664904117584 0 0.51589959859848
vn -0.9191666841507 0 0.39386883378029
vn -0.8137326836586 0 -0.58123928308487
vn -0.15711463987827 0 -0.98758035898209
vn -0.96440398693085 0 0.26443323493004
vn -0.69192188978195 0 0.72197240591049
vn -0.69192188978195 0 0.72197240591049
vn -0.65867030620575 0 0.7524316906929
vn 0.59596365690231 0 -0.80301141738892
vn 0.38407385349274 0 -0.92330235242844
vn 0.38407385349274 0 -0.92330235242844
vn 0.48904812335968 0 -0.8722568154335
vn -0.72432076931 0 0.68946313858032
vn -0.70980560779572 0 0.70439755916595
vn -0.89178079366684 0 -0.45246773958206
vn 0.27386650443077 0 -0.96176773309708
vn -0.69498258829117 0 0.71902656555176
vn -0.69498264789581 0 0.71902656555176
vn 0.899797976017 0 0.43630677461624
vn 0.899797976017 0 0.43630680441856
vn 0.740085542202 0 0.6725127696991
vn -0.72376650571823 0 0.69004499912262
vn 0.98635566234589 0 0.16462853550911
vn -0.73996067047119 0 -0.67265009880066
vn -0.73996067047119 0 -0.6726501584053
vn -0.76415264606476 0 -0.6450355052948
vn 0.67894047498703 0 0.73419326543808
vn 0.67894047498703 0 0.73419332504272
vn 0.5891889333725 0 0.80799531936646
vn -0.67960888147354 0 -0.7335746884346
vn 0.38920965790749 0 0.92114919424057
vn 0.38920965790749 0 0.92114919424057
vn 0.05675214529037 0 0.99838829040527
vn 0.05675214901567 0 0.99838829040527
vn -0.17134124040604 0 0.98521173000336
vn -0.64281040430069 0 -0.76602530479431
vn -0.64281040430069 0 -0.76602536439896
vn -0.53399389982224 0 -0.84548836946487
vn -0.93924868106842 0 0.34323742985725
vn 0.99755108356476 0 -0.06994204223156
vn 0.06573819369078 0 0.99783688783646
vn -0.03018754161894 0 0.99954426288605
vn -0.89621764421463 0 -0.44361460208893
vn 0.92327570915222 0 0.38413786888123
vn -0.07554090768099 0 -0.9971427321434
vn 0.07185569405556 0 -0.99741506576538
vn 0.23745283484459 0 0.9713990688324
vn -0.15711465477943 0 -0.98758035898209
vn -0.69192188978195 0 0.72197234630585
vn 0.489048153162 0 -0.8722568154335
vn -0.72432082891464 0 0.68946307897568
vn 0.38920968770981 0 0.92114919424057
vn 0.05675216019154 0 0.99838829040527
vn 0.77252954244614 0 -0.63497883081436
vn 0.05592912435532 0 0.99843472242355
vn -0.91674387454987 0 -0.3994754254818
vn 0.89354467391968 0 0.44897425174713
vn 0.07185570150614 0 -0.99741506576538
vn 0.13585750758648 0 -0.9907283782959
vn -0.69192188978195 0 0.72197234630585
vn -0.65867030620575 0 0.75243163108826
vn 0.489048153162 0 -0.87225675582886
vn 0.89979791641235 0 0.43630683422089
vn 0.74008548259735 0 0.6725127696991
vn -0.76415258646011 0 -0.6450355052948
vn 0.05675215646625 0 0.99838829040527
vn -0.1713412553072 0 0.98521173000336
# 112 normals

o 文
usemtl default
f 142//1 141//1 140//1 139//1
f 141//1 142//1 144//1 143//1
f 143//1 144//1 146//1 145//1
f 146//1 144//1 148//1 147//1
f 146//1 147//1 150//1 149//1
f 149//1 150//1 152//1 151//1
f 152//1 150//1 154//1 153//1
f 150//1 147//1 156//1 155//1
f 155//1 156//1 158//1 157//1
f 148//1 144//1 160//1 159//1
f 159//1 160//1 162//1 161//1
f 161//1 162//1 164//1 163//1
f 163//1 164//1 166//1 165//1
f 165//1 166//1 168//1 167//1
f 157//1 158//1 170//1 169//1
f 157//1 169//1 172//1 171//1
f 170//1 158//1 174//1 173//1
f 173//1 174//1 176//1 175//1
f 171//1 172//1 178//1 177//1
f 169//1 170//1 180//1 179//1
f 179//1 180//1 182//1 181//1
f 181//1 182//1 184//1 183//1
f 48//2 2//2 1//2 47//2
f 49//4 3//4 2//3 48//3
f 47//7 1//7 4//6 50//5
f 50//5 4//6 6//8 52//8
f 51//9 5//9 3//4 49//4
f 54//13 8//12 7//11 53//10
f 53//10 7//11 5//9 51//9
f 56//15 10//15 9//14 55//14
f 57//18 11//17 8//16 54//16
f 60//21 14//20 13//19 59//19
f 59//23 13//22 11//17 57//18
f 62//24 16//24 15//24 61//24
f 58//25 12//25 16//25 62//25
f 61//26 15//26 14//20 60//21
f 55//29 9//28 18//27 64//27
f 63//31 17//31 12//30 58//30
f 64//27 18//27 20//32 66//32
f 65//33 19//33 17//31 63//31
f 52//36 6//36 22//35 68//34
f 67//38 21//37 10//15 56//15
f 68//34 22//35 24//39 70//39
f 69//40 23//40 21//37 67//38
f 70//39 24//39 26//42 72//41
f 71//44 25//43 23//40 69//40
f 72//41 26//42 28//45 74//45
f 73//47 27//47 25//46 71//46
f 76//48 30//48 29//48 75//48
f 74//45 28//45 30//49 76//49
f 75//50 29//50 27//47 73//47
f 77//53 31//53 34//52 80//51
f 79//54 33//54 19//54 65//54
f 66//57 20//57 36//56 82//55
f 81//59 35//59 32//58 78//58
f 84//60 38//60 37//60 83//60
f 82//55 36//56 38//61 84//61
f 83//63 37//62 35//59 81//59
f 86//66 40//66 39//65 85//64
f 80//51 34//52 40//67 86//67
f 85//64 39//65 33//68 79//68
f 78//71 32//71 42//70 88//69
f 87//74 41//74 31//73 77//72
f 88//69 42//70 44//75 90//75
f 89//77 43//76 41//74 87//74
f 92//80 46//80 45//79 91//78
f 90//75 44//75 46//82 92//81
f 91//78 45//79 43//76 89//77
f 94//83 48//2 47//2 93//83
f 95//4 49//4 48//3 94//3
f 93//7 47//7 50//5 96//84
f 96//84 50//5 52//8 98//8
f 97//9 51//9 49//4 95//4
f 100//13 54//13 53//10 99//85
f 99//85 53//10 51//9 97//9
f 102//86 56//15 55//14 101//14
f 103//17 57//18 54//16 100//16
f 106//21 60//21 59//19 105//19
f 105//23 59//23 57//18 103//17
f 108//24 62//24 61//24 107//24
f 104//87 58//25 62//25 108//87
f 107//26 61//26 60//21 106//21
f 101//29 55//29 64//27 110//88
f 109//89 63//31 58//30 104//30
f 110//88 64//27 66//32 112//32
f 111//33 65//33 63//31 109//89
f 98//90 52//36 68//34 114//34
f 113//38 67//38 56//15 102//86
f 114//34 68//34 70//39 116//91
f 115//40 69//40 67//38 113//38
f 116//91 70//39 72//41 118//41
f 117//92 71//44 69//40 115//40
f 118//41 72//41 74//45 120//45
f 119//47 73//47 71//46 117//46
f 122//48 76//48 75//48 121//48
f 120//45 74//45 76//49 122//93
f 121//50 75//50 73//47 119//47
f 123//53 77//53 80//51 126//94
f 125//54 79//54 65//54 111//54
f 112//95 66//57 82//55 128//56
f 127//59 81//59 78//58 124//96
f 130//60 84//60 83//60 129//60
f 128//56 82//55 84//61 130//61
f 129//63 83//63 81//59 127//59
f 132//66 86//66 85//64 131//64
f 126//94 80//51 86//67 132//67
f 131//64 85//64 79//68 125//68
f 124//71 78//71 88//69 134//69
f 133//74 87//74 77//72 123//72
f 134//69 88//69 90//75 136//75
f 135//97 89//77 87//74 133//74
f 138//80 92//80 91//78 137//98
f 136//75 90//75 92//81 138//81
f 137//98 91//78 89//77 135//97
f 140//83 94//83 93//83 139//83
f 141//4 95//4 94//3 140//3
f 139//7 93//7 96//84 142//6
f 142//6 96//84 98//8 144//8
f 143//99 97//9 95//4 141//4
f 146//12 100//13 99//85 145//11
f 145//11 99//85 97//9 143//99
f 148//86 102//86 101//14 147//100
f 149//17 103//17 100//16 146//16
f 152//20 106//21 105//19 151//19
f 151//22 105//23 103//17 149//17
f 154//24 108//24 107//24 153//24
f 150//87 104//87 108//87 154//87
f 153//26 107//26 106//21 152//20
f 147//101 101//29 110//88 156//27
f 155//89 109//89 104//30 150//30
f 156//27 110//88 112//32 158//32
f 157//102 111//33 109//89 155//89
f 144//90 98//90 114//34 160//34
f 159//37 113//38 102//86 148//86
f 160//34 114//34 116//91 162//103
f 161//40 115//40 113//38 159//37
f 162//103 116//91 118//41 164//42
f 163//44 117//92 115//40 161//40
f 164//42 118//41 120//45 166//104
f 165//47 119//47 117//46 163//46
f 168//48 122//48 121//48 167//48
f 166//104 120//45 122//93 168//93
f 167//50 121//50 119//47 165//47
f 169//106 123//53 126//94 172//105
f 171//54 125//54 111//54 157//54
f 158//107 112//95 128//56 174//56
f 173//59 127//59 124//96 170//96
f 176//60 130//60 129//60 175//60
f 174//56 128//56 130//61 176//61
f 175//62 129//63 127//59 173//59
f 178//109 132//66 131//64 177//108
f 172//105 126//94 132//67 178//67
f 177//108 131//64 125//68 171//68
f 170//110 124//71 134//69 180//70
f 179//74 133//74 123//72 169//72
f 180//70 134//69 136//75 182//75
f 181//77 135//97 133//74 179//74
f 184//112 138//80 137//98 183//111
f 182//75 136//75 138//81 184//81
f 183//111 137//98 135//97 181//77
f 4//1 3//1 2//1 1//1
f 3//1 4//1 6//1 5//1
f 5//1 6//1 8//1 7//1
f 8//1 6//1 10//1 9//1
f 8//1 9//1 12//1 11//1
f 11//1 12//1 14//1 13//1
f 14//1 12//1 16//1 15//1
f 12//1 9//1 18//1 17//1
f 17//1 18//1 20//1 19//1
f 10//1 6//1 22//1 21//1
f 21//1 22//1 24//1 23//1
f 23//1 24//1 26//1 25//1
f 25//1 26//1 28//1 27//1
f 27//1 28//1 30//1 29//1
f 19//1 20//1 32//1 31//1
f 19//1 31//1 34//1 33//1
f 32//1 20//1 36//1 35//1
f 35//1 36//1 38//1 37//1
f 33//1 34//1 40//1 39//1
f 31//1 32//1 42//1 41//1
f 41//1 42//1 44//1 43//1
f 43//1 44//1 46//1 45//1

